<?xml version="1.0" encoding="UTF-8" standalone="no"?>
<svg
   xmlns:dc="http://purl.org/dc/elements/1.1/"
   xmlns:cc="http://creativecommons.org/ns#"
   xmlns:rdf="http://www.w3.org/1999/02/22-rdf-syntax-ns#"
   xmlns:svg="http://www.w3.org/2000/svg"
   xmlns="http://www.w3.org/2000/svg"
   width="1024"
   height="1024"
   viewBox="0 0 1024 1024"
   id="svg2"
   version="1.1">
  <defs
     id="defs4" />
  <metadata
     id="metadata7">
    <rdf:RDF>
      <cc:Work
         rdf:about="">
        <dc:format>image/svg+xml</dc:format>
        <dc:type
           rdf:resource="http://purl.org/dc/dcmitype/StillImage" />
        <dc:title></dc:title>
      </cc:Work>
    </rdf:RDF>
  </metadata>
  <path
     id="path839"
     d="M 500,752.00001 V 848 H 392.00001 L 296.00002,751.99999 V 656 h 95.99999 v 47.99998 l 48,48.00003 z"
     style="fill:#fe0000;fill-opacity:1;stroke:none;stroke-width:1px;stroke-linecap:butt;stroke-linejoin:miter;stroke-opacity:1" />
  <path
     id="path835"
     d="m 296.00002,368 h 95.99999 v -48 l 48,-48 59.99999,10e-6 v -96 L 392.00001,176 296.00002,272 Z"
     style="fill:#fe0000;fill-opacity:1;stroke:none;stroke-width:1px;stroke-linecap:butt;stroke-linejoin:miter;stroke-opacity:1" />
  <path
     id="path837"
     d="m 524,272.00001 v -96 H 631.99999 L 727.99998,272 v 168 l -47.99999,47.99999 47.99999,48 v 216 L 631.99999,848 H 524 v -95.99999 l 59.99999,-3e-5 48,-47.99999 V 583.99998 l -48,-47.99999 -143.99998,2e-5 V 440 h 143.99998 l 48,-47.99999 V 320 l -48,-48 z"
     style="fill:#fe0000;fill-opacity:1;stroke:none;stroke-width:1px;stroke-linecap:butt;stroke-linejoin:miter;stroke-opacity:1" />
</svg>
