<?xml version="1.0" encoding="UTF-8" standalone="no"?>
<svg
   xmlns:dc="http://purl.org/dc/elements/1.1/"
   xmlns:cc="http://creativecommons.org/ns#"
   xmlns:rdf="http://www.w3.org/1999/02/22-rdf-syntax-ns#"
   xmlns:svg="http://www.w3.org/2000/svg"
   xmlns="http://www.w3.org/2000/svg"
   width="1024"
   height="1024"
   viewBox="0 0 1024 1024"
   id="svg2"
   version="1.1">
  <defs
     id="defs4" />
  <metadata
     id="metadata7">
    <rdf:RDF>
      <cc:Work
         rdf:about="">
        <dc:format>image/svg+xml</dc:format>
        <dc:type
           rdf:resource="http://purl.org/dc/dcmitype/StillImage" />
        <dc:title></dc:title>
      </cc:Work>
    </rdf:RDF>
  </metadata>
  <path
     id="path839-3"
     d="m 500,272.00001 v -96 H 392.00001 l -95.99999,96 V 440 l 47.99999,47.99999 -47.99999,48 V 752.00001 L 392.00001,848 H 500 v -95.99999 l -59.99999,-3e-5 -48,-47.99999 V 583.99998 L 440,535.99999 h 60 v -96 H 440.00001 L 392.00001,392 V 320 L 440,272.00001 Z"
     style="fill:#f20000;fill-opacity:1;stroke:none;stroke-width:1px;stroke-linecap:butt;stroke-linejoin:miter;stroke-opacity:1" />
  <path
     id="path839"
     d="m 524,272.00001 v -96 h 107.99999 l 95.99999,96 V 440 l -47.99999,47.99999 47.99999,48 V 752.00001 L 631.99999,848 H 524 v -95.99999 l 59.99999,-3e-5 48,-47.99999 V 583.99998 L 584,535.99999 h -60 v -96 h 59.99999 l 48,-47.99999 V 320 L 584,272.00001 Z"
     style="fill:#f20000;fill-opacity:1;stroke:none;stroke-width:1px;stroke-linecap:butt;stroke-linejoin:miter;stroke-opacity:1" />
</svg>
