<?xml version="1.0" encoding="UTF-8" standalone="no"?>
<svg
   xmlns:dc="http://purl.org/dc/elements/1.1/"
   xmlns:cc="http://creativecommons.org/ns#"
   xmlns:rdf="http://www.w3.org/1999/02/22-rdf-syntax-ns#"
   xmlns:svg="http://www.w3.org/2000/svg"
   xmlns="http://www.w3.org/2000/svg"
   width="1024"
   height="1024"
   viewBox="0 0 1024 1024"
   id="svg2"
   version="1.1">
  <defs
     id="defs4" />
  <metadata
     id="metadata7">
    <rdf:RDF>
      <cc:Work
         rdf:about="">
        <dc:format>image/svg+xml</dc:format>
        <dc:type
           rdf:resource="http://purl.org/dc/dcmitype/StillImage" />
        <dc:title></dc:title>
      </cc:Work>
    </rdf:RDF>
  </metadata>
  <path
     id="path833"
     d="m 521,775.99999 45,2e-5 36,-36 v -36 h 72 v 72 l -72,71.99998 h -81 z"
     style="fill:#ff0000;fill-opacity:1;stroke:none;stroke-width:0.75px;stroke-linecap:butt;stroke-linejoin:miter;stroke-opacity:1" />
  <path
     id="path829"
     d="m 521,344.00001 h 81 L 674,416 v 72 h -72 v -36 l -36,-36 -45,10e-6 z"
     style="fill:#ff0000;fill-opacity:1;stroke:none;stroke-width:0.75px;stroke-linecap:butt;stroke-linejoin:miter;stroke-opacity:1" />
  <path
     id="path831"
     d="m 503.00001,344.00001 v 72 l -45,-10e-6 c 0,0 -36,36 -36,36 v 288.00001 l 36,36 45,-2e-5 v 72 l -81,10e-6 -72,-71.99999 V 416 l 72,-71.99999 z"
     style="fill:#ff0000;fill-opacity:1;stroke:none;stroke-width:0.75px;stroke-linecap:butt;stroke-linejoin:miter;stroke-opacity:1" />
  <path
     id="path879"
     d="m 530,272.00002 -54,53.99999 h 72 l 53.99999,-53.99999 z"
     style="fill:#ff0000;fill-opacity:1;stroke:none;stroke-width:0.75px;stroke-linecap:butt;stroke-linejoin:miter;stroke-opacity:1" />
</svg>
